<?xml version="1.0" standalone="no"?>
<!DOCTYPE svg PUBLIC "-//W3C//DTD SVG 20010904//EN"
 "http://www.w3.org/TR/2001/REC-SVG-20010904/DTD/svg10.dtd">
<svg version="1.0" xmlns="http://www.w3.org/2000/svg"
 width="512.000000pt" height="512.000000pt" viewBox="0 0 512.000000 512.000000"
 preserveAspectRatio="xMidYMid meet">

<g transform="translate(0.000000,512.000000) scale(0.100000,-0.100000)"
fill="#41b649" stroke="none">
<path d="M2396 5100 c-142 -36 -289 -130 -369 -237 -74 -99 -110 -134 -161
-161 -45 -23 -61 -26 -131 -23 -44 2 -141 4 -215 4 -122 1 -142 -1 -208 -25
-108 -39 -177 -84 -262 -168 -153 -153 -219 -353 -189 -574 27 -210 8 -253
-180 -399 -155 -120 -251 -325 -251 -532 0 -233 100 -419 309 -574 119 -89
144 -158 126 -351 l-7 -85 -399 -400 c-456 -459 -454 -456 -454 -600 0 -66 5
-90 26 -136 36 -76 90 -133 157 -166 55 -27 63 -28 254 -31 l196 -4 4 -196 c3
-181 6 -201 26 -243 37 -75 87 -125 160 -161 58 -29 76 -33 147 -33 145 0 131
-11 667 530 259 261 475 475 480 475 6 0 24 -12 41 -26 44 -37 154 -90 228
-110 86 -23 244 -23 329 0 87 23 163 59 226 106 l51 38 479 -479 c543 -544
531 -534 669 -534 66 0 90 5 136 26 76 36 133 90 166 157 27 56 28 62 31 254
l3 197 197 3 c177 3 202 5 244 25 66 30 133 96 165 162 24 48 28 68 28 146 0
144 4 138 -455 600 l-398 400 -8 70 c-26 211 1 279 151 388 127 91 227 241
266 397 19 77 17 250 -5 330 -41 151 -139 289 -284 398 -54 41 -84 72 -106
112 -34 61 -36 83 -22 300 10 143 -6 230 -63 345 -138 279 -433 420 -759 364
-118 -21 -229 24 -294 120 -91 133 -233 243 -372 287 -113 36 -260 42 -370 14z
m299 -215 c28 -8 78 -32 111 -53 58 -38 89 -69 186 -191 52 -66 146 -131 225
-157 63 -21 169 -24 324 -9 143 13 255 -25 359 -122 117 -108 164 -253 140
-432 -31 -239 29 -396 202 -524 172 -128 234 -246 226 -436 -3 -82 -8 -106
-35 -161 -45 -95 -84 -143 -167 -204 -201 -149 -262 -301 -224 -562 46 -316
-222 -587 -531 -535 -252 41 -418 -25 -565 -224 -97 -130 -212 -195 -361 -203
-183 -9 -308 56 -435 228 -49 66 -124 132 -185 163 -93 47 -199 58 -351 37
-157 -23 -292 19 -403 125 -125 119 -165 266 -129 475 30 174 -50 359 -206
475 -127 94 -189 178 -221 302 -48 185 28 382 192 500 186 133 261 299 233
514 -19 143 -9 234 34 326 83 173 261 275 453 259 40 -3 106 -9 146 -12 178
-15 338 68 461 241 70 97 191 175 304 195 57 11 150 4 217 -15z m-1716 -3313
c133 -196 363 -306 600 -287 53 5 130 8 171 9 87 0 132 -19 192 -81 l38 -38
-473 -472 c-259 -260 -485 -477 -500 -483 -57 -21 -130 18 -147 78 -5 20 -10
139 -10 264 0 225 0 227 -24 255 l-24 28 -255 5 c-240 5 -257 6 -284 26 -35
26 -58 83 -49 121 5 19 121 142 349 371 l342 342 17 -40 c9 -22 35 -66 57 -98z
m3922 -565 c16 -39 -5 -102 -44 -131 -27 -20 -45 -21 -284 -26 l-255 -5 -24
-28 c-24 -28 -24 -30 -24 -255 0 -125 -5 -244 -10 -264 -18 -63 -93 -100 -152
-74 -19 8 -232 213 -501 483 l-469 470 27 31 c14 17 55 46 91 63 63 31 66 32
147 23 45 -5 134 -8 197 -8 98 1 127 5 195 28 178 61 315 182 396 349 l23 48
338 -338 c185 -185 343 -350 349 -366z"/>
<path d="M2421 4034 c-84 -22 -170 -73 -236 -139 -208 -208 -208 -542 0 -750
103 -103 229 -155 375 -155 146 0 272 52 375 155 208 208 208 542 0 750 -67
67 -153 117 -240 140 -73 19 -202 18 -274 -1z m290 -235 c67 -36 98 -68 137
-143 22 -43 26 -64 26 -136 1 -78 -2 -90 -33 -148 -38 -70 -70 -100 -145 -140
-43 -22 -64 -26 -136 -26 -72 0 -93 4 -136 26 -75 40 -107 70 -145 140 -31 58
-34 70 -33 148 0 100 24 160 89 225 100 100 249 121 376 54z"/>
<path d="M2385 2756 c-176 -42 -302 -110 -429 -234 -134 -131 -228 -312 -243
-469 -6 -61 -5 -63 31 -99 33 -33 40 -36 77 -31 61 8 85 37 105 125 54 243
259 447 499 497 146 31 285 12 425 -56 67 -33 102 -59 165 -123 95 -95 145
-183 176 -308 12 -47 30 -93 41 -105 47 -51 143 -34 169 28 29 72 -32 273
-123 406 -112 164 -271 283 -458 345 -84 27 -111 31 -235 34 -96 3 -159 -1
-200 -10z"/>
</g>
</svg>
