<?xml version="1.0" standalone="no"?>
<!DOCTYPE svg PUBLIC "-//W3C//DTD SVG 20010904//EN"
 "http://www.w3.org/TR/2001/REC-SVG-20010904/DTD/svg10.dtd">
<svg version="1.0" xmlns="http://www.w3.org/2000/svg"
 width="512.000000pt" height="512.000000pt" viewBox="0 0 512.000000 512.000000"
 preserveAspectRatio="xMidYMid meet">

<g transform="translate(0.000000,512.000000) scale(0.100000,-0.100000)"
fill="#41b649" stroke="none">
<path d="M977 4142 l-397 -397 563 -563 c309 -309 567 -562 572 -562 13 0 105
92 105 105 0 6 -228 238 -507 517 l-508 508 283 282 282 283 112 -112 113
-113 -113 -113 -112 -112 57 -58 58 -57 112 112 113 113 112 -113 113 -112
-168 -168 -167 -167 57 -58 58 -57 167 167 168 168 112 -113 113 -112 -113
-113 -112 -112 57 -57 56 -56 169 161 c92 89 168 167 168 172 0 6 -253 263
-563 573 l-562 562 -398 -398z"/>
<path d="M3835 4416 c-127 -32 -69 23 -1577 -1484 l-1417 -1417 -90 -425 c-49
-234 -89 -426 -88 -427 2 -1 194 39 427 88 l425 90 1416 1417 c905 905 1426
1433 1442 1462 81 144 78 323 -6 457 -40 63 -151 167 -214 200 -97 52 -211 65
-318 39z m209 -162 c64 -22 167 -119 201 -189 20 -40 26 -68 26 -118 0 -102
-24 -145 -151 -272 l-110 -110 -223 223 -222 223 115 113 c126 124 162 144
261 145 30 1 77 -6 103 -15z m-509 -444 l80 -80 -1210 -1210 -1210 -1210 -82
82 -83 83 1207 1207 c665 665 1210 1208 1213 1208 3 0 41 -36 85 -80z m280
-280 l80 -80 -1210 -1210 -1210 -1210 -82 82 -83 83 1207 1207 c665 665 1210
1208 1213 1208 3 0 41 -36 85 -80z m-2508 -2566 c-5 -6 -431 -94 -434 -90 -2
1 12 75 31 162 19 87 39 186 46 218 l12 59 174 -174 c95 -95 172 -174 171
-175z"/>
<path d="M3180 2285 l-225 -225 58 -57 57 -58 168 168 167 167 112 -112 112
-112 -109 -116 -109 -117 55 -54 54 -53 113 112 112 112 115 -115 115 -115
-168 -168 -167 -167 55 -55 55 -55 168 168 167 167 115 -115 115 -115 -283
-283 -282 -282 -508 508 c-279 279 -512 507 -517 507 -13 0 -105 -92 -105
-105 0 -6 253 -263 563 -573 l562 -562 398 398 397 397 -568 568 -567 567
-225 -225z"/>
</g>
</svg>
